<svg width="24" height="24" viewBox="0 0 24 24" fill="none" xmlns="http://www.w3.org/2000/svg">
<path d="M19.0652 5.76419L14.5741 1.27315C14.3981 1.09814 14.16 0.999896 13.9117 0.999939H4.92967C2.76022 1.00201 1.00207 2.76016 1 4.92961V19.1512C1.00207 21.3206 2.76022 23.0788 4.92967 23.0808H12.134C12.2795 23.0817 12.423 23.0484 12.5532 22.9835C12.9409 22.7891 13.1451 22.3545 13.0472 21.9319C13.0182 21.8138 12.9674 21.7021 12.8975 21.6025C10.9339 18.5648 11.8047 14.5104 14.8425 12.5468C15.9033 11.8611 17.1397 11.4968 18.4028 11.4977C18.9195 11.4977 19.3384 11.0788 19.3384 10.5621V6.42658C19.3384 6.17838 19.2402 5.94019 19.0652 5.76419ZM9.04642 18.339H5.30388C4.78713 18.339 4.36824 17.9202 4.36824 17.4034C4.36824 16.8867 4.78713 16.4678 5.30388 16.4678H9.04642C9.56316 16.4678 9.98205 16.8867 9.98205 17.4034C9.98205 17.9202 9.56316 18.339 9.04642 18.339ZM10.5884 13.601H5.30392C4.78718 13.601 4.36829 13.1821 4.36829 12.6654C4.36829 12.1486 4.78718 11.7297 5.30392 11.7297H10.5884C11.1051 11.7297 11.524 12.1486 11.524 12.6654C11.524 13.1821 11.1051 13.601 10.5884 13.601ZM17.4671 6.98796H13.3503V2.87121H13.5225L17.4671 6.81584V6.98796Z" fill="#4323FF"/>
<path d="M22.6242 16.5688C21.8532 15.6668 20.2738 14.1548 18.3202 14.1548C16.3666 14.1548 14.7835 15.6519 14.0163 16.5688C13.5154 17.1522 13.5154 18.0138 14.0163 18.5972C14.7648 19.4992 16.3666 21.0112 18.3202 21.0112C20.2738 21.0112 21.8532 19.5142 22.6242 18.5972C23.1251 18.0139 23.1251 17.1522 22.6242 16.5688ZM18.3202 18.8929C17.5968 18.8929 17.0103 18.3065 17.0103 17.583C17.0103 16.8596 17.5968 16.2731 18.3202 16.2731C19.0437 16.2731 19.6301 16.8596 19.6301 17.583C19.6301 18.3064 19.0437 18.8929 18.3202 18.8929Z" fill="#4323FF"/>
</svg>
