<svg width="20" height="20" viewBox="0 0 20 20" fill="none" xmlns="http://www.w3.org/2000/svg">
<path d="M19.8247 18.9258L13.7683 12.8125C14.3265 12.1354 14.7679 11.3737 15.0925 10.5273C15.4171 9.66797 15.5794 8.76302 15.5794 7.8125C15.5794 6.73177 15.3716 5.71615 14.9562 4.76562C14.5537 3.8151 13.9955 2.98828 13.2814 2.28516C12.5803 1.58203 11.7559 1.02865 10.8082 0.625C9.86044 0.208333 8.85427 0 7.78968 0C6.71211 0 5.69945 0.208333 4.7517 0.625C3.80396 1.02865 2.97306 1.58203 2.25901 2.28516C1.55794 2.98828 1.00617 3.8151 0.6037 4.76562C0.201233 5.71615 0 6.73177 0 7.8125C0 8.89323 0.201233 9.90885 0.6037 10.8594C1.00617 11.8099 1.55794 12.6367 2.25901 13.3398C2.97306 14.043 3.80396 14.6029 4.7517 15.0195C5.69945 15.4232 6.71211 15.625 7.78968 15.625C8.76339 15.625 9.68517 15.4557 10.555 15.1172C11.4249 14.7786 12.2038 14.3099 12.8919 13.7109L18.9289 19.8047C19.0587 19.9349 19.208 20 19.3768 20C19.5456 20 19.6949 19.9349 19.8247 19.8047C19.9416 19.6875 20 19.5378 20 19.3555C20 19.1862 19.9416 19.043 19.8247 18.9258ZM7.78968 14.3945C6.88088 14.3945 6.02402 14.2253 5.21908 13.8867C4.42713 13.5352 3.73255 13.0599 3.13535 12.4609C2.55112 11.862 2.08374 11.1654 1.7332 10.3711C1.39565 9.57682 1.22687 8.72396 1.22687 7.8125C1.22687 6.90104 1.39565 6.04818 1.7332 5.25391C2.08374 4.45964 2.55112 3.76302 3.13535 3.16406C3.73255 2.5651 4.42713 2.09635 5.21908 1.75781C6.02402 1.40625 6.88088 1.23047 7.78968 1.23047C8.68549 1.23047 9.52937 1.40625 10.3213 1.75781C11.1263 2.09635 11.8208 2.5651 12.4051 3.16406C13.0023 3.76302 13.4697 4.45964 13.8072 5.25391C14.1577 6.04818 14.333 6.90104 14.333 7.8125C14.333 8.72396 14.1577 9.57682 13.8072 10.3711C13.4697 11.1654 13.0023 11.862 12.4051 12.4609C11.8208 13.0599 11.1263 13.5352 10.3213 13.8867C9.52937 14.2253 8.68549 14.3945 7.78968 14.3945Z" fill="#777E90"/>
</svg>
