<svg width="18" height="18" viewBox="0 0 18 18" fill="none" xmlns="http://www.w3.org/2000/svg">
<path d="M11 5C12.1046 5 13 4.10457 13 3C13 1.89543 12.1046 1 11 1C9.89543 1 9 1.89543 9 3C9 4.10457 9.89543 5 11 5Z" stroke="#00C2A6" stroke-width="1.5" stroke-linecap="round" stroke-linejoin="round"/>
<path d="M1 3H9" stroke="#00C2A6" stroke-width="1.5" stroke-linecap="round" stroke-linejoin="round"/>
<path d="M13 3H17" stroke="#00C2A6" stroke-width="1.5" stroke-linecap="round" stroke-linejoin="round"/>
<path d="M5 11C6.10457 11 7 10.1046 7 9C7 7.89543 6.10457 7 5 7C3.89543 7 3 7.89543 3 9C3 10.1046 3.89543 11 5 11Z" stroke="#00C2A6" stroke-width="1.5" stroke-linecap="round" stroke-linejoin="round"/>
<path d="M1 9H3" stroke="#00C2A6" stroke-width="1.5" stroke-linecap="round" stroke-linejoin="round"/>
<path d="M7 9H17" stroke="#00C2A6" stroke-width="1.5" stroke-linecap="round" stroke-linejoin="round"/>
<path d="M14 17C15.1046 17 16 16.1046 16 15C16 13.8954 15.1046 13 14 13C12.8954 13 12 13.8954 12 15C12 16.1046 12.8954 17 14 17Z" stroke="#00C2A6" stroke-width="1.5" stroke-linecap="round" stroke-linejoin="round"/>
<path d="M1 15H12" stroke="#00C2A6" stroke-width="1.5" stroke-linecap="round" stroke-linejoin="round"/>
<path d="M16 15H17" stroke="#00C2A6" stroke-width="1.5" stroke-linecap="round" stroke-linejoin="round"/>
</svg>
